{"title":"Lost in America (1985 Julie Hagerty Albert Brooks) DVDRip XviD-p","uid":15496937,"size":734015488,"categoryP":"video","categoryS":"movies","magnet":"?xt=urn:btih:6d3183493057a5b48131d23dd8b62132fc4cb15d&amp;dn=Lost+in+America+%281985+Julie+Hagerty+Albert+Brooks%29+DVDRip+XviD-p&amp;tr=udp%3A%2F%2Ftracker.leechers-paradise.org%3A6969&amp;tr=udp%3A%2F%2Fzer0day.ch%3A1337&amp;tr=udp%3A%2F%2Fopen.demonii.com%3A1337&amp;tr=udp%3A%2F%2Ftracker.coppersurfer.tk%3A6969&amp;tr=udp%3A%2F%2Fexodus.desync.com%3A6969","seeders":3,"leechers":1,"uploader":"Pongydog","files":1,"time":1470448044,"description":"http://www.imdb.com/title/tt0089504/\r\n\r\nA husband and wife in their 30s decide to quit their jobs, live as free spirits and cruise America in a Winnebago. \r\n\r\nDirector: Albert Brooks  \r\n\r\nWriters: Albert Brooks,  Monica Mcgowan Johnson (as Monica Johnson)  \r\n\r\nStars: Albert Brooks,  Julie Hagerty,  Sylvia Farrel  | See full cast &amp; crew » \r\n\r\nGeneral\r\nComplete name                            : C:LOST_IN_AMERICAVIDEO_TSLost in America (1985 Julie Hagerty Albert Brooks) DVDRip XviD-pong.avi\r\nFormat                                   : AVI\r\nFormat/Info                              : Audio Video Interleave\r\nFile size                                : 700 MiB\r\nDuration                                 : 1h 31mn\r\nOverall bit rate                         : 1 072 Kbps\r\nWriting application                      : VirtualDubMod 1.5.4.1 (build 2178/release)\r\nWriting library                          : VirtualDubMod build 2178/release\r\n\r\nVideo\r\nID                                       : 0\r\nFormat                                   : MPEG-4 Visual\r\nFormat profile                           : Advanced   \r\nFormat settings, BVOP                    : 1\r\nFormat settings, QPel                    : No\r\nFormat settings, GMC                     : No warppoints\r\nFormat settings, Matrix                  : Custom\r\nCodec ID                                 : XVID\r\nCodec ID/Hint                            : XviD\r\nDuration                                 : 1h 31mn\r\nBit rate                                 : 1 001 Kbps\r\nWidth                                    : 640 pixels\r\nHeight                                   : 368 pixels\r\nDisplay aspect ratio                     : 1.739\r\nFrame rate                               : 23.976 (23976/1000) fps\r\nColor space                              : YUV\r\nChroma subsampling                       : 4:2:0\r\nBit depth                                : 8 bits\r\nScan type                                : Progressive\r\nCompression mode                         : Lossy\r\nBits/(Pixel*Frame)                       : 0.177\r\nStream size                              : 654 MiB (93%)\r\nWriting library                          : XviD 1.2.1 (UTC 2008-12-04)\r\n\r\nAudio\r\nID                                       : 1\r\nFormat                                   : MPEG Audio\r\nFormat version                           : Version 1\r\nFormat profile                           : Layer 3\r\nCodec ID                                 : 55\r\nCodec ID/Hint                            : MP3\r\nDuration                                 : 1h 31mn\r\nBit rate mode                            : Constant\r\nBit rate                                 : 64.0 Kbps\r\nChannel(s)                               : 1 channel\r\nSampling rate                            : 48.0 KHz\r\nCompression mode                         : Lossy\r\nStream size                              : 41.8 MiB (6%)\r\nAlignment                                : Aligned on interleaves\r\nInterleave, duration                     : 83 ms (2.00 video frames)\r\nInterleave, preload duration             : 504 ms\r\nWriting library                          : LAME3.98\r\nLanguage                                 : English","torrent":{"xt":"urn:btih:6d3183493057a5b48131d23dd8b62132fc4cb15d","amp;dn":"Lost+in+America+%281985+Julie+Hagerty+Albert+Brooks%29+DVDRip+XviD-p","amp;tr":["udp%3A%2F%2Ftracker.leechers-paradise.org%3A6969","udp%3A%2F%2Fzer0day.ch%3A1337","udp%3A%2F%2Fopen.demonii.com%3A1337","udp%3A%2F%2Ftracker.coppersurfer.tk%3A6969","udp%3A%2F%2Fexodus.desync.com%3A6969"],"infoHash":"6d3183493057a5b48131d23dd8b62132fc4cb15d","infoHashBuffer":{"type":"Buffer","data":[109,49,131,73,48,87,165,180,129,49,210,61,216,182,33,50,252,76,177,93]},"announce":[],"urlList":[]}}